<svg width="12" height="12" viewBox="0 0 12 12" fill="none" xmlns="http://www.w3.org/2000/svg">
<path d="M9.49539 11.0255L5.6709 7.20101L1.84641 11.0255C1.64355 11.2284 1.3684 11.3423 1.08151 11.3423C0.794618 11.3423 0.519476 11.2284 0.316613 11.0255C0.113749 10.8226 -0.000218546 10.5475 -0.000218546 10.2606C-0.000218208 9.97371 0.11375 9.69857 0.316613 9.49571L4.1411 5.67122L0.316613 1.84673C0.113749 1.64386 -0.000217871 1.36872 -0.000217745 1.08183C-0.000217634 0.794937 0.113749 0.519796 0.316613 0.316932C0.519476 0.114069 0.794618 0.000101358 1.08151 0.000101247C1.3684 0.000101121 1.64354 0.114069 1.84641 0.316932L5.6709 4.14142L9.49539 0.316932C9.69825 0.114068 9.97339 0.000100447 10.2603 0.000100215C10.5472 0.000100331 10.8223 0.114068 11.0252 0.316931C11.228 0.519795 11.342 0.794937 11.342 1.08183C11.342 1.36872 11.228 1.64386 11.0252 1.84673L7.20069 5.67122L11.0252 9.49571C11.228 9.69857 11.342 9.97371 11.342 10.2606C11.342 10.5475 11.228 10.8226 11.0252 11.0255C10.8223 11.2284 10.5472 11.3423 10.2603 11.3423C9.97339 11.3423 9.69825 11.2284 9.49539 11.0255Z" fill="black" style="fill:black;fill-opacity:1;"/>
</svg>
