<svg width="19" height="19" viewBox="0 0 19 19" fill="none" xmlns="http://www.w3.org/2000/svg">
<path d="M0.833008 4.16659C0.833008 3.28253 1.1842 2.43468 1.80932 1.80956C2.43444 1.18444 3.28229 0.833252 4.16634 0.833252H14.1663C15.0504 0.833252 15.8982 1.18444 16.5234 1.80956C17.1485 2.43468 17.4997 3.28253 17.4997 4.16659V14.1666C17.4997 15.0506 17.1485 15.8985 16.5234 16.5236C15.8982 17.1487 15.0504 17.4999 14.1663 17.4999H4.16634C3.28229 17.4999 2.43444 17.1487 1.80932 16.5236C1.1842 15.8985 0.833008 15.0506 0.833008 14.1666V4.16659Z" stroke="#543C52" style="stroke:#543C52;stroke:color(display-p3 0.3294 0.2353 0.3216);stroke-opacity:1;" stroke-width="1.66667" stroke-linecap="round" stroke-linejoin="round"/>
<path d="M6.24935 8.33317C7.39994 8.33317 8.33268 7.40043 8.33268 6.24984C8.33268 5.09924 7.39994 4.1665 6.24935 4.1665C5.09876 4.1665 4.16602 5.09924 4.16602 6.24984C4.16602 7.40043 5.09876 8.33317 6.24935 8.33317Z" stroke="#543C52" style="stroke:#543C52;stroke:color(display-p3 0.3294 0.2353 0.3216);stroke-opacity:1;" stroke-width="1.66667" stroke-linecap="round" stroke-linejoin="round"/>
<path d="M11.271 9.68409L4.16602 17.4999H14.2768C15.1315 17.4999 15.9512 17.1604 16.5555 16.5561C17.1598 15.9517 17.4993 15.1321 17.4993 14.2774V14.1666C17.4993 13.7783 17.3535 13.6291 17.091 13.3416L13.7327 9.67909C13.5762 9.50835 13.3858 9.37211 13.1737 9.27907C12.9615 9.18602 12.7324 9.1382 12.5007 9.13868C12.2691 9.13915 12.0401 9.18789 11.8284 9.2818C11.6167 9.37571 11.4268 9.51272 11.271 9.68409Z" stroke="#543C52" style="stroke:#543C52;stroke:color(display-p3 0.3294 0.2353 0.3216);stroke-opacity:1;" stroke-width="1.66667" stroke-linecap="round" stroke-linejoin="round"/>
</svg>
