<svg width="16" height="16" viewBox="0 0 16 16" fill="none" xmlns="http://www.w3.org/2000/svg">
<path d="M14.0625 8.65383H8.65383V14.0625C8.65383 14.3494 8.53986 14.6245 8.337 14.8274C8.13414 15.0302 7.85899 15.1442 7.5721 15.1442C7.28521 15.1442 7.01007 15.0302 6.8072 14.8274C6.60434 14.6245 6.49037 14.3494 6.49037 14.0625V8.65383H1.08173C0.794837 8.65383 0.519695 8.53986 0.316831 8.337C0.113968 8.13414 0 7.859 0 7.5721C0 7.28521 0.113968 7.01007 0.316831 6.80721C0.519695 6.60434 0.794837 6.49037 1.08173 6.49037H6.49037V1.08173C6.49037 0.794837 6.60434 0.519694 6.8072 0.316831C7.01007 0.113967 7.28521 0 7.5721 0C7.85899 0 8.13414 0.113967 8.337 0.316831C8.53986 0.519694 8.65383 0.794837 8.65383 1.08173V6.49037H14.0625C14.3494 6.49037 14.6245 6.60434 14.8274 6.80721C15.0302 7.01007 15.1442 7.28521 15.1442 7.5721C15.1442 7.859 15.0302 8.13414 14.8274 8.337C14.6245 8.53986 14.3494 8.65383 14.0625 8.65383Z" fill="black" style="fill:black;fill-opacity:1;"/>
</svg>
