<svg width="24" height="24" viewBox="0 0 24 24" fill="none" xmlns="http://www.w3.org/2000/svg">
<rect x="1" y="1" width="22" height="22" rx="11" fill="white" style="fill:white;fill-opacity:1;"/>
<rect x="1" y="1" width="22" height="22" rx="11" stroke="#543C52" style="stroke:#543C52;stroke:color(display-p3 0.3294 0.2353 0.3216);stroke-opacity:1;" stroke-width="2"/>
<path d="M16.8672 12.8102H12.8107V16.8667C12.8107 17.0819 12.7252 17.2882 12.5731 17.4404C12.4209 17.5925 12.2146 17.678 11.9994 17.678C11.7842 17.678 11.5779 17.5925 11.4257 17.4404C11.2736 17.2882 11.1881 17.0819 11.1881 16.8667V12.8102H7.13161C6.91644 12.8102 6.71008 12.7247 6.55794 12.5726C6.40579 12.4204 6.32031 12.2141 6.32031 11.9989C6.32031 11.7837 6.40579 11.5774 6.55794 11.4252C6.71008 11.2731 6.91644 11.1876 7.13161 11.1876H11.1881V7.13112C11.1881 6.91595 11.2736 6.70959 11.4257 6.55745C11.5779 6.4053 11.7842 6.31982 11.9994 6.31982C12.2146 6.31982 12.4209 6.4053 12.5731 6.55745C12.7252 6.70959 12.8107 6.91595 12.8107 7.13112V11.1876H16.8672C17.0823 11.1876 17.2887 11.2731 17.4408 11.4252C17.593 11.5774 17.6785 11.7837 17.6785 11.9989C17.6785 12.2141 17.593 12.4204 17.4408 12.5726C17.2887 12.7247 17.0823 12.8102 16.8672 12.8102Z" fill="#543C52" style="fill:#543C52;fill:color(display-p3 0.3294 0.2353 0.3216);fill-opacity:1;"/>
</svg>
