<svg width="20" height="20" viewBox="0 0 20 20" fill="none" xmlns="http://www.w3.org/2000/svg">
<path d="M17.3306 8.63021L4.20093 1.13803C3.9241 0.982957 3.60662 0.915844 3.29072 0.945614C2.97481 0.975385 2.67546 1.10063 2.43248 1.30468C2.18949 1.50874 2.01439 1.78194 1.93046 2.08794C1.84654 2.39395 1.85776 2.71825 1.96265 3.01771L4.32046 9.99896L1.96265 16.9802C1.87976 17.2157 1.85451 17.4677 1.88903 17.715C1.92354 17.9623 2.01682 18.1977 2.16103 18.4015C2.30525 18.6053 2.49621 18.7716 2.71792 18.8864C2.93963 19.0012 3.18563 19.0613 3.43531 19.0615C3.70381 19.0609 3.96768 18.9915 4.20171 18.8599L4.20874 18.8552L17.3337 11.3497C17.5744 11.2135 17.7746 11.0159 17.9139 10.777C18.0532 10.5381 18.1265 10.2665 18.1265 9.98998C18.1265 9.71345 18.0532 9.44187 17.9139 9.20298C17.7746 8.96409 17.5744 8.76644 17.3337 8.63021H17.3306ZM3.99702 16.8162L5.98296 10.9365H10.3103C10.5589 10.9365 10.7974 10.8377 10.9732 10.6619C11.149 10.4861 11.2478 10.2476 11.2478 9.99896C11.2478 9.75032 11.149 9.51187 10.9732 9.33605C10.7974 9.16024 10.5589 9.06146 10.3103 9.06146H5.98296L3.99624 3.18021L15.9306 9.99037L3.99702 16.8162Z" fill="white" style="fill:white;fill-opacity:1;"/>
</svg>
