<svg width="15" height="17" viewBox="0 0 15 17" fill="none" xmlns="http://www.w3.org/2000/svg">
<path d="M0.833008 4.16659H14.1663M5.83301 7.49992V12.4999M9.16634 7.49992V12.4999M1.66634 4.16659L2.49967 14.1666C2.49967 14.6086 2.67527 15.0325 2.98783 15.3451C3.30039 15.6577 3.72431 15.8333 4.16634 15.8333H10.833C11.275 15.8333 11.699 15.6577 12.0115 15.3451C12.3241 15.0325 12.4997 14.6086 12.4997 14.1666L13.333 4.16659M4.99967 4.16659V1.66659C4.99967 1.44557 5.08747 1.23361 5.24375 1.07733C5.40003 0.921049 5.61199 0.833252 5.83301 0.833252H9.16634C9.38735 0.833252 9.59932 0.921049 9.7556 1.07733C9.91188 1.23361 9.99967 1.44557 9.99967 1.66659V4.16659" stroke="#543C52" style="stroke:#543C52;stroke:color(display-p3 0.3294 0.2353 0.3216);stroke-opacity:1;" stroke-width="1.66667" stroke-linecap="round" stroke-linejoin="round"/>
</svg>
