<svg width="20" height="14" viewBox="0 0 20 14" fill="none" xmlns="http://www.w3.org/2000/svg">
<path d="M2.42667 4.37554C2.42658 3.65038 2.60675 2.93657 2.95096 2.29831C3.29517 1.66005 3.79264 1.11737 4.39861 0.719057C5.00459 0.320748 5.70007 0.0793117 6.4225 0.0164633C7.14493 -0.0463851 7.87165 0.0713255 8.5373 0.359008C9.20296 0.64669 9.78666 1.09532 10.2359 1.66455C10.6852 2.23378 10.9859 2.90576 11.111 3.62004C11.2362 4.33432 11.1818 5.0685 10.9528 5.75656C10.7238 6.44461 10.3274 7.06495 9.79917 7.56179C10.7951 8.04528 11.6597 8.76171 12.3199 9.65036C12.9801 10.539 13.4163 11.5737 13.5917 12.6668C13.611 12.7884 13.6061 12.9127 13.5774 13.0324C13.5486 13.1522 13.4966 13.2651 13.4242 13.3648C13.3519 13.4644 13.2606 13.5488 13.1556 13.6132C13.0506 13.6776 12.9339 13.7206 12.8123 13.7399C12.6907 13.7592 12.5664 13.7543 12.4467 13.7256C12.3269 13.6969 12.214 13.6448 12.1143 13.5725C12.0147 13.5001 11.9303 13.4088 11.8659 13.3038C11.8015 13.1988 11.7585 13.0822 11.7392 12.9605C11.5517 11.7859 10.9516 10.7166 10.0466 9.94466C9.14168 9.17269 7.99116 8.74863 6.80167 8.74863C5.61219 8.74863 4.46167 9.17269 3.55671 9.94466C2.65176 10.7166 2.05166 11.7859 1.86417 12.9605C1.8448 13.0822 1.80166 13.1988 1.73722 13.3038C1.67277 13.4087 1.58829 13.5 1.48858 13.5723C1.38887 13.6446 1.2759 13.6966 1.15611 13.7252C1.03632 13.7539 0.912058 13.7587 0.790421 13.7393C0.668784 13.7199 0.552153 13.6768 0.447188 13.6123C0.342223 13.5479 0.250978 13.4634 0.178665 13.3637C0.106351 13.264 0.0543844 13.151 0.0257315 13.0312C-0.00292137 12.9114 -0.00769922 12.7872 0.0116708 12.6655C0.186386 11.5726 0.622413 10.5379 1.28269 9.64958C1.94297 8.76123 2.80797 8.04544 3.80417 7.56304C3.36917 7.15388 3.02255 6.65999 2.78564 6.1118C2.54874 5.56362 2.42657 4.97273 2.42667 4.37554ZM13.6767 2.50054C14.4029 2.50105 15.1134 2.71237 15.7219 3.10885C16.3304 3.50533 16.8107 4.06993 17.1046 4.7341C17.3984 5.39827 17.4931 6.13346 17.3772 6.85042C17.2613 7.56737 16.9398 8.23527 16.4517 8.77304C17.2129 9.15017 17.8893 9.67854 18.4395 10.3259C18.9897 10.9732 19.4022 11.7259 19.6517 12.538C19.7012 12.6956 19.7082 12.8635 19.6719 13.0247C19.6356 13.1858 19.5573 13.3345 19.4449 13.4556C19.3326 13.5767 19.1902 13.6659 19.0322 13.7142C18.8742 13.7625 18.7063 13.7681 18.5454 13.7305C18.3846 13.6933 18.2364 13.6143 18.1159 13.5015C17.9954 13.3887 17.9069 13.2461 17.8592 13.088C17.6348 12.3635 17.2264 11.7095 16.6739 11.1898C16.1214 10.6701 15.4436 10.3026 14.7067 10.123C14.502 10.0736 14.3199 9.95673 14.1897 9.79119C14.0595 9.62566 13.9889 9.42112 13.9892 9.21054V8.77054C13.9891 8.596 14.0377 8.42489 14.1295 8.27649C14.2214 8.12808 14.3529 8.00827 14.5092 7.93054C14.8881 7.74273 15.1925 7.43232 15.3727 7.04972C15.553 6.66713 15.5986 6.23482 15.5022 5.82302C15.4057 5.41122 15.1729 5.04413 14.8415 4.78135C14.5101 4.51858 14.0996 4.37556 13.6767 4.37554C13.428 4.37554 13.1896 4.27677 13.0138 4.10095C12.8379 3.92514 12.7392 3.68668 12.7392 3.43804C12.7392 3.1894 12.8379 2.95094 13.0138 2.77513C13.1896 2.59931 13.428 2.50054 13.6767 2.50054ZM6.80167 1.87554C6.46875 1.86801 6.13767 1.92707 5.82789 2.04925C5.51811 2.17144 5.23585 2.35428 4.9977 2.58704C4.75956 2.81981 4.57031 3.09781 4.44108 3.40472C4.31185 3.71163 4.24523 4.04127 4.24515 4.37428C4.24507 4.70728 4.31152 5.03695 4.44059 5.34393C4.56967 5.6509 4.75878 5.929 4.99681 6.16188C5.23484 6.39477 5.517 6.57775 5.82673 6.70009C6.13645 6.82242 6.46749 6.88165 6.80042 6.87429C7.45362 6.85985 8.07521 6.59026 8.53213 6.12324C8.98905 5.65622 9.24499 5.02889 9.24515 4.37553C9.24531 3.72216 8.98969 3.0947 8.53301 2.62745C8.07632 2.16021 7.45486 1.89031 6.80167 1.87554Z" fill="#070A1C" style="fill:#070A1C;fill:color(display-p3 0.0275 0.0392 0.1098);fill-opacity:1;"/>
</svg>
