<svg width="20" height="20" viewBox="0 0 20 20" fill="none" xmlns="http://www.w3.org/2000/svg">
<path d="M17.133 8.62499L11.0715 2.56355C10.7873 2.27946 10.402 2.11987 10.0001 2.11987C9.59833 2.11987 9.21296 2.27946 8.92879 2.56355L2.86735 8.62499C2.72606 8.76541 2.61406 8.93249 2.53784 9.11653C2.46163 9.30057 2.42271 9.49791 2.42335 9.69711V16.9708C2.42335 17.212 2.51914 17.4432 2.68965 17.6138C2.86016 17.7843 3.09142 17.8801 3.33256 17.8801H16.6677C16.9089 17.8801 17.1401 17.7843 17.3106 17.6138C17.4812 17.4432 17.577 17.212 17.577 16.9708V9.69711C17.5776 9.49791 17.5387 9.30057 17.4625 9.11653C17.3862 8.93249 17.2742 8.76541 17.133 8.62499ZM15.7585 16.0616H4.24178V9.82213L10.0001 4.06376L15.7585 9.82213V16.0616Z" fill="#070A1C" style="fill:#070A1C;fill:color(display-p3 0.0275 0.0392 0.1098);fill-opacity:1;"/>
</svg>
