<svg width="16" height="16" viewBox="0 0 16 16" fill="none" xmlns="http://www.w3.org/2000/svg">
<path d="M0.9375 0.0400391H5.9375C6.17553 0.0400391 6.40395 0.134421 6.57227 0.302734C6.74058 0.471048 6.83496 0.699468 6.83496 0.9375C6.83496 1.17553 6.74058 1.40395 6.57227 1.57227C6.40395 1.74058 6.17553 1.83496 5.9375 1.83496H1.83496V13.79H5.9375C6.17553 13.79 6.40395 13.8844 6.57227 14.0527C6.74058 14.221 6.83496 14.4495 6.83496 14.6875C6.83496 14.9255 6.74058 15.154 6.57227 15.3223C6.40395 15.4906 6.17553 15.585 5.9375 15.585H0.9375C0.699468 15.585 0.471048 15.4906 0.302734 15.3223C0.13442 15.154 0.0400391 14.9255 0.0400391 14.6875V0.9375C0.0400391 0.699468 0.13442 0.471048 0.302734 0.302734C0.471048 0.134421 0.699468 0.0400391 0.9375 0.0400391ZM11.5615 3.78906C11.8 3.78906 12.0286 3.88412 12.1973 4.05273L15.3223 7.17773C15.4058 7.26105 15.4723 7.3598 15.5176 7.46875C15.5628 7.57787 15.586 7.69535 15.5859 7.81348C15.5859 7.93144 15.5628 8.04829 15.5176 8.15723C15.4722 8.26624 15.4059 8.36591 15.3223 8.44922H15.3213L12.1963 11.5742C12.0277 11.7427 11.7989 11.8379 11.5605 11.8379C11.3222 11.8378 11.0933 11.7427 10.9248 11.5742C10.7563 11.4057 10.6622 11.1768 10.6621 10.9385C10.6621 10.7002 10.7564 10.4713 10.9248 10.3027L12.4502 8.77832L12.5186 8.70996H5.9375C5.69947 8.70996 5.47105 8.61558 5.30273 8.44727C5.13442 8.27895 5.04004 8.05053 5.04004 7.8125C5.04004 7.57447 5.13442 7.34605 5.30273 7.17773C5.47105 7.00942 5.69947 6.91504 5.9375 6.91504H12.5186L12.4502 6.84668L10.9258 5.32422C10.7572 5.15565 10.6622 4.92687 10.6621 4.68848C10.6621 4.45011 10.7573 4.22133 10.9258 4.05273C11.0944 3.88416 11.3231 3.78911 11.5615 3.78906Z" fill="#543C52" stroke="#543C52" style="fill:#543C52;fill:color(display-p3 0.3294 0.2353 0.3216);fill-opacity:1;stroke:#543C52;stroke:color(display-p3 0.3294 0.2353 0.3216);stroke-opacity:1;" stroke-width="0.08"/>
</svg>
