<svg width="19" height="19" viewBox="0 0 19 19" fill="none" xmlns="http://www.w3.org/2000/svg">
<path d="M0.833496 4.16659C0.833496 3.28253 1.18469 2.43468 1.80981 1.80956C2.43493 1.18444 3.28277 0.833252 4.16683 0.833252H14.1668C15.0509 0.833252 15.8987 1.18444 16.5239 1.80956C17.149 2.43468 17.5002 3.28253 17.5002 4.16659V14.1666C17.5002 15.0506 17.149 15.8985 16.5239 16.5236C15.8987 17.1487 15.0509 17.4999 14.1668 17.4999H4.16683C3.28277 17.4999 2.43493 17.1487 1.80981 16.5236C1.18469 15.8985 0.833496 15.0506 0.833496 14.1666V4.16659Z" stroke="#070A1C" style="stroke:#070A1C;stroke:color(display-p3 0.0275 0.0392 0.1098);stroke-opacity:1;" stroke-width="1.66667" stroke-linecap="round" stroke-linejoin="round"/>
<path d="M6.25033 8.33317C7.40092 8.33317 8.33366 7.40043 8.33366 6.24984C8.33366 5.09924 7.40092 4.1665 6.25033 4.1665C5.09973 4.1665 4.16699 5.09924 4.16699 6.24984C4.16699 7.40043 5.09973 8.33317 6.25033 8.33317Z" stroke="#070A1C" style="stroke:#070A1C;stroke:color(display-p3 0.0275 0.0392 0.1098);stroke-opacity:1;" stroke-width="1.66667" stroke-linecap="round" stroke-linejoin="round"/>
<path d="M11.272 9.68409L4.16699 17.4999H14.2778C15.1325 17.4999 15.9521 17.1604 16.5565 16.5561C17.1608 15.9517 17.5003 15.1321 17.5003 14.2774V14.1666C17.5003 13.7783 17.3545 13.6291 17.092 13.3416L13.7337 9.67909C13.5771 9.50835 13.3867 9.37211 13.1746 9.27907C12.9625 9.18602 12.7333 9.1382 12.5017 9.13868C12.2701 9.13915 12.0411 9.18789 11.8294 9.2818C11.6177 9.37571 11.4278 9.51272 11.272 9.68409Z" stroke="#070A1C" style="stroke:#070A1C;stroke:color(display-p3 0.0275 0.0392 0.1098);stroke-opacity:1;" stroke-width="1.66667" stroke-linecap="round" stroke-linejoin="round"/>
</svg>
