<svg width="17" height="18" viewBox="0 0 17 18" fill="none" xmlns="http://www.w3.org/2000/svg">
<circle cx="2.34996" cy="2.34996" r="2.34996" transform="matrix(-1 0 0 1 10.644 6.38306)" stroke="#070A1C" style="stroke:#070A1C;stroke:color(display-p3 0.0275 0.0392 0.1098);stroke-opacity:1;" stroke-width="1.8"/>
<path d="M8.29395 0.899902V-9.76324e-05H8.2939L8.29395 0.899902ZM11.8193 3.20068L11.3693 3.98009L11.3693 3.98011L11.8193 3.20068ZM13.7773 7.94971L12.8773 7.94968V7.94971H13.7773ZM11.8193 14.2651L11.3693 13.4857L11.3693 13.4857L11.8193 14.2651ZM8.29395 16.5659L8.2939 17.4659H8.29395V16.5659ZM4.76953 14.2651L5.21958 13.4857L5.21953 13.4857L4.76953 14.2651ZM2.02734 8.73291H2.92734L2.92734 8.73284L2.02734 8.73291ZM4.76953 3.20068L5.21953 3.98011L5.21959 3.98007L4.76953 3.20068ZM5.85041 1.81372L4.98491 1.56691L5.85041 1.81372ZM1.27834 7.01416L0.665315 7.67309L1.27834 7.01416ZM3.17732 13.9893L3.01591 13.1039L3.17732 13.9893ZM6.48097 16.3548L6.27332 17.2305L6.48097 16.3548ZM10.7368 15.652L9.87151 15.4045L10.7368 15.652ZM10.1058 16.3548L10.3134 17.2305L10.1058 16.3548ZM13.4108 13.9894L13.5721 13.104L13.4108 13.9894ZM15.1057 4.86316L15.8875 4.41732L15.1057 4.86316ZM1.27814 10.4509L0.665316 9.79175L1.27814 10.4509ZM13.4108 3.47565L13.2489 2.59034L13.4108 3.47565ZM14.3189 3.72884L13.6272 4.30463L14.3189 3.72884ZM2.26905 3.72918L1.57688 3.15395L2.26905 3.72918ZM3.17729 3.47581L3.01534 4.36112L3.17729 3.47581ZM15.0931 10.0577L14.6971 10.8659L15.0931 10.0577ZM15.7382 11.1756L16.5933 11.4563L15.7382 11.1756ZM10.7368 1.81381L11.6021 1.56624L10.7368 1.81381ZM8.29395 0.899902V1.7999C8.84683 1.7999 9.38383 1.86483 9.89813 1.98676L10.1058 1.11104L10.3134 0.235312C9.66458 0.0814943 8.98825 -9.76324e-05 8.29395 -9.76324e-05V0.899902ZM10.7368 1.81381L9.87151 2.06138C10.0946 2.84116 10.6098 3.54153 11.3693 3.98009L11.8193 3.20068L12.2694 2.42128C11.9308 2.2258 11.7022 1.91605 11.6021 1.56624L10.7368 1.81381ZM11.8193 3.20068L11.3693 3.98011C12.0632 4.38071 12.844 4.49424 13.5727 4.36097L13.4108 3.47565L13.2489 2.59034C12.9223 2.65006 12.5778 2.59935 12.2693 2.42126L11.8193 3.20068ZM14.3189 3.72884L13.6272 4.30463C13.8878 4.61774 14.1213 4.95367 14.3239 5.309L15.1057 4.86316L15.8875 4.41732C15.632 3.96926 15.3381 3.54646 15.0106 3.15304L14.3189 3.72884ZM14.6958 6.08853L14.1476 5.37477C13.3774 5.96637 12.8774 6.89899 12.8773 7.94968L13.7773 7.94971L14.6773 7.94973C14.6774 7.48286 14.8975 7.06844 15.2441 6.80229L14.6958 6.08853ZM13.7773 7.94971H12.8773C12.8773 9.23327 13.6217 10.339 14.6971 10.8659L15.0931 10.0577L15.4891 9.24949C15.006 9.01286 14.6773 8.51934 14.6773 7.94971H13.7773ZM15.7382 11.1756L14.8831 10.8948C14.6087 11.7307 14.1787 12.497 13.6269 13.1604L14.3188 13.7359L15.0107 14.3115C15.7043 13.4777 16.2467 12.5122 16.5933 11.4563L15.7382 11.1756ZM13.4108 13.9894L13.5721 13.104C12.8432 12.9712 12.0627 13.0854 11.3693 13.4857L11.8193 14.2651L12.2693 15.0446C12.5781 14.8663 12.923 14.8154 13.2494 14.8748L13.4108 13.9894ZM11.8193 14.2651L11.3693 13.4857C10.6097 13.9243 10.0946 14.6247 9.87151 15.4045L10.7368 15.652L11.6021 15.8996C11.7022 15.5498 11.9308 15.24 12.2693 15.0446L11.8193 14.2651ZM10.1058 16.3548L9.89815 15.4791C9.38386 15.601 8.84688 15.6659 8.29395 15.6659V16.5659V17.4659C8.98829 17.4659 9.66459 17.3843 10.3134 17.2305L10.1058 16.3548ZM8.29395 16.5659L8.29399 15.6659C7.74037 15.6659 7.20306 15.6011 6.68862 15.4791L6.48097 16.3548L6.27332 17.2305C6.92268 17.3845 7.5993 17.4659 8.2939 17.4659L8.29395 16.5659ZM5.8504 15.6521L6.7159 15.4053C6.49363 14.6259 5.97989 13.9248 5.21958 13.4857L4.76953 14.2651L4.31948 15.0445C4.65719 15.2395 4.88504 15.5487 4.98491 15.8989L5.8504 15.6521ZM4.76953 14.2651L5.21953 13.4857C4.52608 13.0853 3.74513 12.9709 3.01591 13.1039L3.17732 13.9893L3.33873 14.8747C3.66531 14.8151 4.01053 14.8662 4.31953 15.0446L4.76953 14.2651ZM2.2691 13.7357L2.96127 13.1604C2.46297 12.5608 2.06458 11.8766 1.79017 11.1325L0.945766 11.4439L0.101359 11.7553C0.447581 12.6941 0.94984 13.5563 1.57692 14.3109L2.2691 13.7357ZM1.27814 10.4509L1.89096 11.11C2.5268 10.5188 2.92734 9.6728 2.92734 8.73291H2.02734H1.12734C1.12734 9.15109 0.950984 9.52615 0.665316 9.79175L1.27814 10.4509ZM2.02734 8.73291L2.92734 8.73284C2.92727 7.79333 2.52725 6.9468 1.89137 6.35522L1.27834 7.01416L0.665315 7.67309C0.950841 7.93872 1.12731 8.31432 1.12734 8.73298L2.02734 8.73291ZM0.945933 6.02066L1.79031 6.33215C2.06479 5.58811 2.46309 4.90382 2.96122 4.30442L2.26905 3.72918L1.57688 3.15395C0.949826 3.90846 0.447765 4.77068 0.101556 5.70917L0.945933 6.02066ZM3.17729 3.47581L3.01534 4.36112C3.74442 4.4945 4.52555 4.38078 5.21953 3.98011L4.76953 3.20068L4.31953 2.42126C4.01084 2.59949 3.66595 2.65027 3.33924 2.59051L3.17729 3.47581ZM4.76953 3.20068L5.21959 3.98007C5.97986 3.54105 6.49363 2.84 6.71591 2.06054L5.85041 1.81372L4.98491 1.56691C4.88506 1.91707 4.65721 2.22626 4.31947 2.4213L4.76953 3.20068ZM6.48101 1.11102L6.68865 1.98674C7.20309 1.86476 7.74042 1.79993 8.29399 1.7999L8.29395 0.899902L8.2939 -9.76324e-05C7.59934 -6.56247e-05 6.9227 0.0813351 6.27337 0.235296L6.48101 1.11102ZM5.85041 1.81372L6.71591 2.06054C6.72463 2.02996 6.73506 2.00386 6.74541 1.98333C6.75583 1.96267 6.76414 1.95163 6.76723 1.94795C6.77011 1.94451 6.76562 1.95079 6.75123 1.96024C6.73582 1.97037 6.71415 1.98069 6.68865 1.98674L6.48101 1.11102L6.27337 0.235296C5.49321 0.420278 5.12066 1.09088 4.98491 1.56691L5.85041 1.81372ZM1.27834 7.01416L1.89137 6.35522C1.86484 6.33053 1.84308 6.30526 1.82686 6.2822C1.81051 6.25895 1.80314 6.24275 1.8006 6.23601C1.79819 6.22964 1.80203 6.23702 1.80275 6.25676C1.80355 6.27831 1.80018 6.30541 1.79031 6.33215L0.945933 6.02066L0.101556 5.70917C-0.212649 6.56091 0.268204 7.30364 0.665315 7.67309L1.27834 7.01416ZM3.17732 13.9893L3.01591 13.1039C2.98465 13.1096 2.95666 13.1118 2.93369 13.1116C2.91057 13.1114 2.89697 13.1088 2.89226 13.1076C2.88785 13.1066 2.89536 13.1078 2.91009 13.1164C2.92586 13.1257 2.94461 13.1404 2.96127 13.1604L2.2691 13.7357L1.57692 14.3109C2.08817 14.9261 2.85235 14.9633 3.33873 14.8747L3.17732 13.9893ZM6.48097 16.3548L6.68862 15.4791C6.71413 15.4851 6.73579 15.4955 6.75121 15.5056C6.7656 15.515 6.77009 15.5213 6.76721 15.5179C6.76413 15.5142 6.75582 15.5032 6.7454 15.4825C6.73505 15.462 6.72462 15.4359 6.7159 15.4053L5.8504 15.6521L4.98491 15.8989C5.12066 16.375 5.4932 17.0455 6.27332 17.2305L6.48097 16.3548ZM10.7368 15.652L9.87151 15.4045C9.86273 15.4352 9.85223 15.4614 9.84182 15.482C9.83133 15.5028 9.82296 15.5139 9.81981 15.5177C9.81687 15.5212 9.82131 15.5149 9.83565 15.5055C9.85102 15.4954 9.87266 15.4851 9.89815 15.4791L10.1058 16.3548L10.3134 17.2305C11.0935 17.0455 11.4661 16.375 11.6021 15.8996L10.7368 15.652ZM14.3188 13.7359L13.6269 13.1604C13.6435 13.1404 13.6622 13.1257 13.6779 13.1165C13.6926 13.1079 13.7001 13.1067 13.6956 13.1078C13.6909 13.1089 13.6773 13.1115 13.6542 13.1117C13.6313 13.1119 13.6033 13.1097 13.5721 13.104L13.4108 13.9894L13.2494 14.8748C13.7359 14.9635 14.4995 14.926 15.0107 14.3115L14.3188 13.7359ZM15.1057 4.86316L14.3239 5.309C14.3071 5.27961 14.2981 5.24416 14.2973 5.21385C14.2967 5.1877 14.3023 5.18102 14.2963 5.19642C14.2902 5.21212 14.2758 5.24044 14.2478 5.27605C14.2202 5.31126 14.1855 5.34564 14.1476 5.37477L14.6958 6.08853L15.2441 6.80229C15.5442 6.57176 15.8201 6.24393 15.9736 5.84963C16.1323 5.44208 16.1719 4.916 15.8875 4.41732L15.1057 4.86316ZM0.945766 11.4439L1.79017 11.1325C1.80003 11.1593 1.80341 11.1864 1.80261 11.2079C1.80189 11.2277 1.79804 11.2351 1.80043 11.2288C1.80295 11.2221 1.81029 11.206 1.8266 11.1828C1.84277 11.1598 1.86448 11.1346 1.89096 11.11L1.27814 10.4509L0.665316 9.79175C0.26795 10.1612 -0.212691 10.9038 0.101359 11.7553L0.945766 11.4439ZM13.4108 3.47565L13.5727 4.36097C13.6038 4.35527 13.6317 4.35308 13.6546 4.35327C13.6777 4.35346 13.6912 4.35601 13.6959 4.35715C13.7003 4.35822 13.6928 4.35702 13.6782 4.34843C13.6625 4.33924 13.6438 4.32459 13.6272 4.30463L14.3189 3.72884L15.0106 3.15304C14.4993 2.53879 13.7357 2.5013 13.2489 2.59034L13.4108 3.47565ZM2.26905 3.72918L2.96122 4.30442C2.94455 4.32448 2.92579 4.33922 2.90999 4.34847C2.89523 4.35712 2.88768 4.35834 2.89204 4.35728C2.89671 4.35615 2.91025 4.3536 2.93331 4.35341C2.95622 4.35322 2.98415 4.35542 3.01534 4.36112L3.17729 3.47581L3.33924 2.59051C2.85258 2.50148 2.08822 2.53866 1.57688 3.15395L2.26905 3.72918ZM15.0931 10.0577L14.6971 10.8659C14.7403 10.8871 14.7812 10.914 14.8154 10.943C14.8499 10.9724 14.8696 10.9972 14.8787 11.0113C14.8876 11.0251 14.8807 11.0196 14.8761 10.9937C14.8707 10.9637 14.8725 10.927 14.8831 10.8948L15.7382 11.1756L16.5933 11.4563C16.7723 10.9112 16.6286 10.4041 16.392 10.0367C16.1631 9.68132 15.828 9.41555 15.4891 9.24949L15.0931 10.0577ZM10.1058 1.11104L9.89813 1.98676C9.87264 1.98072 9.851 1.9704 9.83563 1.96031C9.82128 1.95088 9.81685 1.94465 9.81979 1.94817C9.82294 1.95192 9.83132 1.96306 9.84181 1.98382C9.85222 2.00446 9.86272 2.03067 9.87151 2.06138L10.7368 1.81381L11.6021 1.56624C11.4661 1.09085 11.0935 0.420274 10.3134 0.235312L10.1058 1.11104Z" fill="#070A1C" style="fill:#070A1C;fill:color(display-p3 0.0275 0.0392 0.1098);fill-opacity:1;"/>
</svg>
