<svg width="26" height="26" viewBox="0 0 26 26" fill="none" xmlns="http://www.w3.org/2000/svg">
<path d="M2.48438 15.25C2.48438 13.2569 3.27615 11.3454 4.68552 9.93601C6.09489 8.52664 8.0064 7.73486 9.99955 7.73486C11.9927 7.73486 13.9042 8.52664 15.3136 9.93601C16.723 11.3454 17.5147 13.2569 17.5147 15.25V20.0316C17.5147 20.8282 17.5147 21.2246 17.3964 21.5431C17.3022 21.7954 17.155 22.0246 16.9645 22.215C16.7741 22.4055 16.5449 22.5527 16.2926 22.6469C15.9741 22.7652 15.5768 22.7652 14.7811 22.7652H9.99955C8.0064 22.7652 6.09489 21.9734 4.68552 20.5641C3.27615 19.1547 2.48438 17.2432 2.48438 15.25Z" stroke="#81818D" style="stroke:#81818D;stroke:color(display-p3 0.5059 0.5059 0.5529);stroke-opacity:1;" stroke-width="1.66667"/>
<path d="M7.18164 14.3105H12.818M9.99983 18.0681H12.818" stroke="#81818D" style="stroke:#81818D;stroke:color(display-p3 0.5059 0.5059 0.5529);stroke-opacity:1;" stroke-width="1.66667" stroke-linecap="round" stroke-linejoin="round"/>
<rect x="9.875" y="1.125" width="14.25" height="14.25" rx="7.125" fill="#FF4C4C" style="fill:#FF4C4C;fill:color(display-p3 1.0000 0.2980 0.2980);fill-opacity:1;"/>
<rect x="9.875" y="1.125" width="14.25" height="14.25" rx="7.125" stroke="white" style="stroke:white;stroke-opacity:1;" stroke-width="2.25"/>
<path d="M14.795 11.313V10.233L16.595 8.379C16.949 8.013 17.216 7.725 17.396 7.515C17.582 7.299 17.708 7.119 17.774 6.975C17.846 6.831 17.882 6.69 17.882 6.552C17.882 6.306 17.801 6.114 17.639 5.976C17.483 5.832 17.285 5.76 17.045 5.76C16.799 5.76 16.58 5.832 16.388 5.976C16.196 6.114 16.055 6.327 15.965 6.615L14.75 6.219C14.822 5.871 14.972 5.568 15.2 5.31C15.428 5.052 15.704 4.854 16.028 4.716C16.352 4.572 16.691 4.5 17.045 4.5C17.489 4.5 17.879 4.578 18.215 4.734C18.551 4.89 18.812 5.109 18.998 5.391C19.184 5.673 19.277 6.003 19.277 6.381C19.277 6.621 19.235 6.858 19.151 7.092C19.067 7.32 18.938 7.554 18.764 7.794C18.596 8.028 18.377 8.283 18.107 8.559L16.568 10.143H19.34V11.313H14.795Z" fill="white" style="fill:white;fill-opacity:1;"/>
</svg>
