<svg width="20" height="20" viewBox="0 0 20 20" fill="none" xmlns="http://www.w3.org/2000/svg">
<path d="M2.57901 7.4981C2.57893 6.77294 2.75909 6.05913 3.1033 5.42087C3.44751 4.78261 3.94498 4.23992 4.55095 3.84162C5.15693 3.44331 5.85241 3.20187 6.57484 3.13902C7.29727 3.07617 8.02399 3.19388 8.68965 3.48157C9.3553 3.76925 9.93901 4.21788 10.3883 4.78711C10.8375 5.35634 11.1382 6.02831 11.2634 6.74259C11.3885 7.45688 11.3341 8.19106 11.1052 8.87911C10.8762 9.56717 10.4797 10.1875 9.95151 10.6843C10.9474 11.1678 11.8121 11.8843 12.4722 12.7729C13.1324 13.6616 13.5687 14.6963 13.744 15.7893C13.7633 15.911 13.7584 16.0352 13.7297 16.155C13.701 16.2747 13.6489 16.3877 13.5766 16.4873C13.5042 16.587 13.4129 16.6714 13.3079 16.7358C13.2029 16.8001 13.0863 16.8432 12.9646 16.8625C12.843 16.8818 12.7188 16.8769 12.599 16.8482C12.4792 16.8194 12.3663 16.7674 12.2667 16.695C12.167 16.6227 12.0826 16.5314 12.0182 16.4264C11.9539 16.3214 11.9108 16.2047 11.8915 16.0831C11.704 14.9085 11.1039 13.8392 10.199 13.0672C9.29402 12.2953 8.1435 11.8712 6.95401 11.8712C5.76453 11.8712 4.61401 12.2953 3.70906 13.0672C2.8041 13.8392 2.204 14.9085 2.01651 16.0831C1.99714 16.2047 1.95401 16.3214 1.88956 16.4263C1.82512 16.5313 1.74063 16.6225 1.64092 16.6949C1.54122 16.7672 1.42824 16.8191 1.30845 16.8478C1.18866 16.8764 1.0644 16.8812 0.942764 16.8618C0.821128 16.8425 0.704497 16.7993 0.599532 16.7349C0.494566 16.6705 0.403322 16.586 0.331009 16.4863C0.258695 16.3865 0.206728 16.2736 0.178075 16.1538C0.149422 16.034 0.144645 15.9097 0.164015 15.7881C0.33873 14.6951 0.774757 13.6605 1.43503 12.7721C2.09531 11.8838 2.96031 11.168 3.95651 10.6856C3.52152 10.2764 3.17489 9.78255 2.93799 9.23436C2.70108 8.68617 2.57892 8.09529 2.57901 7.4981ZM13.829 5.6231C14.5553 5.62361 15.2658 5.83493 15.8743 6.23141C16.4828 6.62789 16.9631 7.19249 17.2569 7.85666C17.5508 8.52083 17.6455 9.25602 17.5296 9.97297C17.4137 10.6899 17.0921 11.3578 16.604 11.8956C17.3653 12.2727 18.0417 12.8011 18.5919 13.4484C19.1421 14.0958 19.5545 14.8485 19.804 15.6606C19.8536 15.8182 19.8605 15.9861 19.8242 16.1472C19.7879 16.3084 19.7096 16.4571 19.5973 16.5782C19.4849 16.6993 19.3425 16.7885 19.1845 16.8368C19.0266 16.8851 18.8586 16.8907 18.6978 16.8531C18.5369 16.8159 18.3888 16.7369 18.2683 16.6241C18.1478 16.5113 18.0592 16.3686 18.0115 16.2106C17.7872 15.486 17.3788 14.832 16.8263 14.3124C16.2738 13.7927 15.596 13.4252 14.859 13.2456C14.6543 13.1962 14.4722 13.0793 14.3421 12.9138C14.2119 12.7482 14.1412 12.5437 14.1415 12.3331V11.8931C14.1414 11.7186 14.19 11.5475 14.2819 11.399C14.3738 11.2506 14.5052 11.1308 14.6615 11.0531C15.0405 10.8653 15.3448 10.5549 15.5251 10.1723C15.7053 9.78969 15.751 9.35738 15.6545 8.94558C15.5581 8.53378 15.3253 8.16668 14.9939 7.90391C14.6625 7.64113 14.252 7.49812 13.829 7.4981C13.5804 7.4981 13.3419 7.39933 13.1661 7.22351C12.9903 7.0477 12.8915 6.80924 12.8915 6.5606C12.8915 6.31196 12.9903 6.0735 13.1661 5.89769C13.3419 5.72187 13.5804 5.6231 13.829 5.6231ZM6.95401 4.9981C6.62109 4.99057 6.29002 5.04963 5.98023 5.17181C5.67045 5.29399 5.3882 5.47684 5.15005 5.7096C4.9119 5.94237 4.72265 6.22037 4.59342 6.52728C4.46419 6.83419 4.39758 7.16383 4.3975 7.49683C4.39741 7.82984 4.46386 8.15951 4.59294 8.46649C4.72202 8.77346 4.91112 9.05156 5.14915 9.28444C5.38719 9.51733 5.66935 9.70031 5.97907 9.82265C6.28879 9.94498 6.61984 10.0042 6.95276 9.99685C7.60597 9.9824 8.22756 9.71282 8.68448 9.2458C9.1414 8.77878 9.39733 8.15145 9.3975 7.49808C9.39766 6.84472 9.14204 6.21726 8.68535 5.75001C8.22867 5.28277 7.60721 5.01287 6.95401 4.9981Z" fill="#81818D" style="fill:#81818D;fill:color(display-p3 0.5059 0.5059 0.5529);fill-opacity:1;"/>
</svg>
