<svg width="20" height="20" viewBox="0 0 20 20" fill="none" xmlns="http://www.w3.org/2000/svg">
<path d="M16.4902 11.0801H11.0816V16.4887C11.0816 16.7756 10.9676 17.0508 10.7647 17.2536C10.5619 17.4565 10.2867 17.5705 9.99984 17.5705C9.71294 17.5705 9.4378 17.4565 9.23494 17.2536C9.03208 17.0508 8.91811 16.7756 8.91811 16.4887V11.0801H3.50946C3.22257 11.0801 2.94743 10.9661 2.74457 10.7633C2.5417 10.5604 2.42773 10.2853 2.42773 9.99837C2.42773 9.71148 2.5417 9.43634 2.74457 9.23348C2.94743 9.03061 3.22257 8.91664 3.50946 8.91664H8.91811V3.508C8.91811 3.22111 9.03208 2.94596 9.23494 2.7431C9.4378 2.54024 9.71294 2.42627 9.99984 2.42627C10.2867 2.42627 10.5619 2.54024 10.7647 2.7431C10.9676 2.94596 11.0816 3.22111 11.0816 3.508V8.91664H16.4902C16.7771 8.91664 17.0522 9.03061 17.2551 9.23348C17.458 9.43634 17.5719 9.71148 17.5719 9.99837C17.5719 10.2853 17.458 10.5604 17.2551 10.7633C17.0522 10.9661 16.7771 11.0801 16.4902 11.0801Z" fill="white" style="fill:white;fill-opacity:1;"/>
</svg>
