<svg width="20" height="20" viewBox="0 0 20 20" fill="none" xmlns="http://www.w3.org/2000/svg">
<path d="M18.5156 6.98984C18.3103 6.75722 18.0578 6.57094 17.7749 6.44338C17.4921 6.31583 17.1853 6.24991 16.875 6.25H12.8125V5.3125C12.8115 4.40114 12.449 3.52739 11.8045 2.88296C11.1601 2.23853 10.2864 1.87603 9.375 1.875C9.20097 1.87502 9.03037 1.92348 8.88232 2.01496C8.73427 2.10645 8.6146 2.23733 8.53672 2.39297L5.67031 8.125H2.5C2.0856 8.125 1.68817 8.28962 1.39515 8.58265C1.10212 8.87567 0.9375 9.2731 0.9375 9.6875V16.5625C0.9375 16.9769 1.10212 17.3743 1.39515 17.6674C1.68817 17.9604 2.0856 18.125 2.5 18.125H15.9375C16.4707 18.1249 16.9854 17.9301 17.3851 17.5772C17.7847 17.2243 18.0417 16.7376 18.1078 16.2086L19.0453 8.70859C19.0839 8.40093 19.0566 8.08858 18.9653 7.79226C18.874 7.49595 18.7207 7.22243 18.5156 6.98984ZM2.8125 10H5.3125V16.25H2.8125V10ZM17.1875 8.47656L16.25 15.9766C16.2404 16.0525 16.2033 16.1223 16.1457 16.1727C16.0881 16.2231 16.014 16.2506 15.9375 16.25H7.1875V9.28359L9.90781 3.84375C10.2095 3.95319 10.4702 4.15287 10.6544 4.41565C10.8386 4.67843 10.9375 4.99157 10.9375 5.3125V7.1875C10.9375 7.43614 11.0363 7.6746 11.2121 7.85041C11.3879 8.02623 11.6264 8.125 11.875 8.125H16.875C16.9195 8.12465 16.9636 8.13383 17.0044 8.15192C17.0451 8.17 17.0814 8.19659 17.111 8.22988C17.1406 8.26317 17.1627 8.3024 17.1759 8.34495C17.1891 8.3875 17.1931 8.43237 17.1875 8.47656Z" fill="#81818D" style="fill:#81818D;fill:color(display-p3 0.5059 0.5059 0.5529);fill-opacity:1;"/>
</svg>
