<svg width="5" height="17" viewBox="0 0 5 17" fill="none" xmlns="http://www.w3.org/2000/svg">
<path d="M4.375 8.4375C4.375 8.87015 4.24671 9.29308 4.00634 9.65281C3.76597 10.0125 3.42433 10.2929 3.02462 10.4585C2.62491 10.6241 2.18507 10.6674 1.76074 10.583C1.33641 10.4986 0.946633 10.2902 0.640705 9.9843C0.334778 9.67837 0.126438 9.28859 0.0420332 8.86426C-0.042372 8.43993 0.000947807 8.00009 0.166515 7.60038C0.332081 7.20067 0.612459 6.85903 0.972191 6.61866C1.33192 6.3783 1.75485 6.25 2.1875 6.25C2.76766 6.25 3.32406 6.48047 3.7343 6.89071C4.14453 7.30094 4.375 7.85734 4.375 8.4375ZM2.1875 4.375C2.62015 4.375 3.04308 4.24671 3.40281 4.00634C3.76254 3.76598 4.04292 3.42433 4.20849 3.02462C4.37405 2.62491 4.41737 2.18507 4.33297 1.76074C4.24856 1.33641 4.04023 0.946632 3.7343 0.640705C3.42837 0.334778 3.03859 0.126438 2.61426 0.0420332C2.18993 -0.042372 1.75009 0.000947807 1.35038 0.166515C0.950668 0.332081 0.609027 0.612459 0.368661 0.972191C0.128296 1.33192 1.17832e-06 1.75485 1.17832e-06 2.1875C1.17832e-06 2.76766 0.230469 3.32406 0.640705 3.7343C1.05094 4.14453 1.60734 4.375 2.1875 4.375ZM2.1875 12.5C1.75485 12.5 1.33192 12.6283 0.972191 12.8687C0.612459 13.109 0.332081 13.4507 0.166515 13.8504C0.000947807 14.2501 -0.042372 14.6899 0.0420332 15.1143C0.126438 15.5386 0.334778 15.9284 0.640705 16.2343C0.946633 16.5402 1.33641 16.7486 1.76074 16.833C2.18507 16.9174 2.62491 16.8741 3.02462 16.7085C3.42433 16.5429 3.76597 16.2625 4.00634 15.9028C4.24671 15.5431 4.375 15.1201 4.375 14.6875C4.375 14.1073 4.14453 13.5509 3.7343 13.1407C3.32406 12.7305 2.76766 12.5 2.1875 12.5Z" fill="#81818D" style="fill:#81818D;fill:color(display-p3 0.5059 0.5059 0.5529);fill-opacity:1;"/>
</svg>
