<svg width="20" height="20" viewBox="0 0 20 20" fill="none" xmlns="http://www.w3.org/2000/svg">
<path d="M2.48535 9.99998C2.48535 8.00683 3.27713 6.09532 4.6865 4.68595C6.09587 3.27658 8.00738 2.4848 10.0005 2.4848C11.9937 2.4848 13.9052 3.27658 15.3146 4.68595C16.7239 6.09532 17.5157 8.00683 17.5157 9.99998V14.7815C17.5157 15.5781 17.5157 15.9745 17.3973 16.293C17.3032 16.5453 17.156 16.7745 16.9655 16.965C16.7751 17.1554 16.5459 17.3027 16.2935 17.3968C15.9751 17.5152 15.5777 17.5152 14.7821 17.5152H10.0005C8.00738 17.5152 6.09587 16.7234 4.6865 15.314C3.27713 13.9046 2.48535 11.9931 2.48535 9.99998Z" stroke="#070A1C" style="stroke:#070A1C;stroke:color(display-p3 0.0275 0.0392 0.1098);stroke-opacity:1;" stroke-width="1.66667"/>
<path d="M7.18262 9.06055H12.819M10.0008 12.8181H12.819" stroke="#070A1C" style="stroke:#070A1C;stroke:color(display-p3 0.0275 0.0392 0.1098);stroke-opacity:1;" stroke-width="1.66667" stroke-linecap="round" stroke-linejoin="round"/>
</svg>
