<svg width="17" height="17" viewBox="0 0 17 17" fill="none" xmlns="http://www.w3.org/2000/svg">
<path d="M0.833496 8.34843C0.833496 6.35528 1.62527 4.44377 3.03464 3.0344C4.44401 1.62503 6.35552 0.833252 8.34867 0.833252C10.3418 0.833252 12.2533 1.62503 13.6627 3.0344C15.0721 4.44377 15.8639 6.35528 15.8639 8.34843V13.13C15.8639 13.9266 15.8639 14.323 15.7455 14.6415C15.6514 14.8938 15.5041 15.123 15.3137 15.3134C15.1232 15.5039 14.894 15.6511 14.6417 15.7452C14.3232 15.8636 13.9259 15.8636 13.1302 15.8636H8.34867C6.35552 15.8636 4.44401 15.0718 3.03464 13.6625C1.62527 12.2531 0.833496 10.3416 0.833496 8.34843Z" stroke="#81818D" style="stroke:#81818D;stroke:color(display-p3 0.5059 0.5059 0.5529);stroke-opacity:1;" stroke-width="1.66667"/>
<path d="M5.53027 7.40894H11.1667M8.34846 11.1665H11.1667" stroke="#81818D" style="stroke:#81818D;stroke:color(display-p3 0.5059 0.5059 0.5529);stroke-opacity:1;" stroke-width="1.66667" stroke-linecap="round" stroke-linejoin="round"/>
</svg>
