<svg width="20" height="20" viewBox="0 0 20 20" fill="none" xmlns="http://www.w3.org/2000/svg">
<path d="M2.57901 7.49798C2.57893 6.77282 2.75909 6.05901 3.1033 5.42075C3.44751 4.78249 3.94498 4.2398 4.55095 3.84149C5.15693 3.44318 5.85241 3.20175 6.57484 3.1389C7.29727 3.07605 8.02399 3.19376 8.68965 3.48144C9.3553 3.76913 9.93901 4.21776 10.3883 4.78699C10.8375 5.35622 11.1382 6.02819 11.2634 6.74247C11.3885 7.45675 11.3341 8.19094 11.1052 8.87899C10.8762 9.56705 10.4797 10.1874 9.95151 10.6842C10.9474 11.1677 11.8121 11.8841 12.4722 12.7728C13.1324 13.6615 13.5687 14.6962 13.744 15.7892C13.7633 15.9109 13.7584 16.0351 13.7297 16.1549C13.701 16.2746 13.6489 16.3876 13.5766 16.4872C13.5042 16.5869 13.4129 16.6713 13.3079 16.7356C13.2029 16.8 13.0863 16.8431 12.9646 16.8624C12.843 16.8816 12.7188 16.8768 12.599 16.8481C12.4792 16.8193 12.3663 16.7673 12.2667 16.6949C12.167 16.6225 12.0826 16.5313 12.0182 16.4263C11.9539 16.3213 11.9108 16.2046 11.8915 16.083C11.704 14.9084 11.1039 13.8391 10.199 13.0671C9.29402 12.2951 8.1435 11.8711 6.95401 11.8711C5.76453 11.8711 4.61401 12.2951 3.70906 13.0671C2.8041 13.8391 2.204 14.9084 2.01651 16.083C1.99714 16.2046 1.95401 16.3212 1.88956 16.4262C1.82512 16.5312 1.74063 16.6224 1.64092 16.6947C1.54122 16.767 1.42824 16.819 1.30845 16.8477C1.18866 16.8763 1.0644 16.8811 0.942764 16.8617C0.821128 16.8424 0.704497 16.7992 0.599532 16.7348C0.494566 16.6703 0.403322 16.5858 0.331009 16.4861C0.258695 16.3864 0.206728 16.2735 0.178075 16.1537C0.149422 16.0339 0.144645 15.9096 0.164015 15.788C0.33873 14.695 0.774757 13.6604 1.43503 12.772C2.09531 11.8837 2.96031 11.1679 3.95651 10.6855C3.52152 10.2763 3.17489 9.78243 2.93799 9.23424C2.70108 8.68605 2.57892 8.09517 2.57901 7.49798ZM13.829 5.62298C14.5553 5.62348 15.2658 5.8348 15.8743 6.23129C16.4828 6.62777 16.9631 7.19236 17.2569 7.85654C17.5508 8.52071 17.6455 9.25589 17.5296 9.97285C17.4137 10.6898 17.0921 11.3577 16.604 11.8955C17.3653 12.2726 18.0417 12.801 18.5919 13.4483C19.1421 14.0957 19.5545 14.8484 19.804 15.6605C19.8536 15.8181 19.8605 15.986 19.8242 16.1471C19.7879 16.3083 19.7096 16.4569 19.5973 16.578C19.4849 16.6992 19.3425 16.7884 19.1845 16.8367C19.0266 16.8849 18.8586 16.8906 18.6978 16.853C18.5369 16.8158 18.3888 16.7368 18.2683 16.624C18.1478 16.5111 18.0592 16.3685 18.0115 16.2105C17.7872 15.4859 17.3788 14.8319 16.8263 14.3122C16.2738 13.7926 15.596 13.425 14.859 13.2455C14.6543 13.1961 14.4722 13.0792 14.3421 12.9136C14.2119 12.7481 14.1412 12.5436 14.1415 12.333V11.893C14.1414 11.7184 14.19 11.5473 14.2819 11.3989C14.3738 11.2505 14.5052 11.1307 14.6615 11.053C15.0405 10.8652 15.3448 10.5548 15.5251 10.1722C15.7053 9.78956 15.751 9.35726 15.6545 8.94546C15.5581 8.53366 15.3253 8.16656 14.9939 7.90379C14.6625 7.64101 14.252 7.498 13.829 7.49798C13.5804 7.49798 13.3419 7.3992 13.1661 7.22339C12.9903 7.04757 12.8915 6.80912 12.8915 6.56048C12.8915 6.31184 12.9903 6.07338 13.1661 5.89756C13.3419 5.72175 13.5804 5.62298 13.829 5.62298ZM6.95401 4.99798C6.62109 4.99045 6.29002 5.04951 5.98023 5.17169C5.67045 5.29387 5.3882 5.47671 5.15005 5.70948C4.9119 5.94225 4.72265 6.22025 4.59342 6.52716C4.46419 6.83407 4.39758 7.1637 4.3975 7.49671C4.39741 7.82972 4.46386 8.15939 4.59294 8.46637C4.72202 8.77334 4.91112 9.05143 5.14915 9.28432C5.38719 9.5172 5.66935 9.70019 5.97907 9.82252C6.28879 9.94486 6.61984 10.0041 6.95276 9.99673C7.60597 9.98228 8.22756 9.7127 8.68448 9.24568C9.1414 8.77866 9.39733 8.15132 9.3975 7.49796C9.39766 6.8446 9.14204 6.21714 8.68535 5.74989C8.22867 5.28264 7.60721 5.01275 6.95401 4.99798Z" fill="#070A1C" style="fill:#070A1C;fill:color(display-p3 0.0275 0.0392 0.1098);fill-opacity:1;"/>
</svg>
