<svg width="46" height="46" viewBox="0 0 46 46" fill="none" xmlns="http://www.w3.org/2000/svg">
<circle cx="23" cy="23" r="23" fill="#543C52" style="fill:#543C52;fill:color(display-p3 0.3294 0.2353 0.3216);fill-opacity:1;"/>
<path d="M14.3503 29.1782V17.9782H16.2863L20.7183 26.1062V17.9782H22.4783V29.1782H20.5423L16.1103 21.0502V29.1782H14.3503ZM28.8496 17.9782C29.9696 17.9782 30.8869 18.3462 31.6016 19.0822C32.3269 19.8182 32.6896 20.7569 32.6896 21.8982C32.6896 23.0396 32.3269 23.9782 31.6016 24.7142C30.8869 25.4502 29.9696 25.8182 28.8496 25.8182H26.5616V29.1782H24.7216V17.9782H28.8496ZM28.7376 24.1702C29.3456 24.1702 29.8469 23.9569 30.2416 23.5302C30.6469 23.0929 30.8496 22.5489 30.8496 21.8982C30.8496 21.2476 30.6469 20.7089 30.2416 20.2822C29.8469 19.8449 29.3456 19.6262 28.7376 19.6262H26.5616V24.1702H28.7376Z" fill="white" style="fill:white;fill-opacity:1;"/>
</svg>
