<svg width="17" height="17" viewBox="0 0 17 17" fill="none" xmlns="http://www.w3.org/2000/svg">
<path d="M0.833984 8.34843C0.833984 6.35528 1.62576 4.44377 3.03513 3.0344C4.4445 1.62503 6.35601 0.833252 8.34916 0.833252C10.3423 0.833252 12.2538 1.62503 13.6632 3.0344C15.0726 4.44377 15.8643 6.35528 15.8643 8.34843V13.13C15.8643 13.9266 15.8643 14.323 15.746 14.6415C15.6519 14.8938 15.5046 15.123 15.3141 15.3134C15.1237 15.5039 14.8945 15.6511 14.6422 15.7452C14.3237 15.8636 13.9264 15.8636 13.1307 15.8636H8.34916C6.35601 15.8636 4.4445 15.0718 3.03513 13.6625C1.62576 12.2531 0.833984 10.3416 0.833984 8.34843Z" stroke="#81818D" style="stroke:#81818D;stroke:color(display-p3 0.5059 0.5059 0.5529);stroke-opacity:1;" stroke-width="1.66667"/>
<path d="M5.53125 7.40894H11.1676M8.34944 11.1665H11.1676" stroke="#81818D" style="stroke:#81818D;stroke:color(display-p3 0.5059 0.5059 0.5529);stroke-opacity:1;" stroke-width="1.66667" stroke-linecap="round" stroke-linejoin="round"/>
</svg>
