<svg width="20" height="20" viewBox="0 0 20 20" fill="none" xmlns="http://www.w3.org/2000/svg">
<g clip-path="url(#clip0_15657_1188)">
<path d="M8.23268 8.23329C7.98706 8.46217 7.79005 8.73817 7.65341 9.04483C7.51677 9.3515 7.4433 9.68254 7.43738 10.0182C7.43145 10.3539 7.4932 10.6873 7.61894 10.9986C7.74468 11.3099 7.93182 11.5927 8.16922 11.8301C8.40662 12.0675 8.6894 12.2546 9.00069 12.3804C9.31198 12.5061 9.64541 12.5679 9.98109 12.5619C10.3168 12.556 10.6478 12.4825 10.9545 12.3459C11.2611 12.2093 11.5371 12.0122 11.766 11.7666M8.94102 4.23329C9.29211 4.18955 9.64554 4.16729 9.99935 4.16663C15.8327 4.16663 18.3327 9.99996 18.3327 9.99996C17.9601 10.7976 17.4929 11.5474 16.941 12.2333M5.50768 5.50829C3.85039 6.63715 2.52424 8.18768 1.66602 9.99996C1.66602 9.99996 4.16602 15.8333 9.99935 15.8333C11.5959 15.8376 13.1583 15.3709 14.491 14.4916M1.66602 1.66663L18.3327 18.3333" stroke="#81818D" style="stroke:#81818D;stroke:color(display-p3 0.5059 0.5059 0.5529);stroke-opacity:1;" stroke-width="2" stroke-linecap="round" stroke-linejoin="round"/>
</g>
<defs>
<clipPath id="clip0_15657_1188">
<rect width="20" height="20" fill="white" style="fill:white;fill-opacity:1;"/>
</clipPath>
</defs>
</svg>
