<svg width="20" height="20" viewBox="0 0 20 20" fill="none" xmlns="http://www.w3.org/2000/svg">
<path d="M1.66797 5.00008C1.66797 4.11603 2.01916 3.26818 2.64428 2.64306C3.2694 2.01794 4.11725 1.66675 5.0013 1.66675H15.0013C15.8854 1.66675 16.7332 2.01794 17.3583 2.64306C17.9834 3.26818 18.3346 4.11603 18.3346 5.00008V15.0001C18.3346 15.8841 17.9834 16.732 17.3583 17.3571C16.7332 17.9822 15.8854 18.3334 15.0013 18.3334H5.0013C4.11725 18.3334 3.2694 17.9822 2.64428 17.3571C2.01916 16.732 1.66797 15.8841 1.66797 15.0001V5.00008Z" stroke="#543C52" style="stroke:#543C52;stroke:color(display-p3 0.3294 0.2353 0.3216);stroke-opacity:1;" stroke-width="1.66667" stroke-linecap="round" stroke-linejoin="round"/>
<path d="M7.08333 9.16667C8.23393 9.16667 9.16667 8.23393 9.16667 7.08333C9.16667 5.93274 8.23393 5 7.08333 5C5.93274 5 5 5.93274 5 7.08333C5 8.23393 5.93274 9.16667 7.08333 9.16667Z" stroke="#543C52" style="stroke:#543C52;stroke:color(display-p3 0.3294 0.2353 0.3216);stroke-opacity:1;" stroke-width="1.66667" stroke-linecap="round" stroke-linejoin="round"/>
<path d="M12.105 10.5176L5 18.3334H15.1108C15.9655 18.3334 16.7851 17.9939 17.3895 17.3896C17.9938 16.7852 18.3333 15.9656 18.3333 15.1109V15.0001C18.3333 14.6118 18.1875 14.4626 17.925 14.1751L14.5667 10.5126C14.4101 10.3418 14.2198 10.2056 14.0076 10.1126C13.7955 10.0195 13.5664 9.9717 13.3347 9.97217C13.1031 9.97264 12.8741 10.0214 12.6624 10.1153C12.4507 10.2092 12.2608 10.3462 12.105 10.5176Z" stroke="#543C52" style="stroke:#543C52;stroke:color(display-p3 0.3294 0.2353 0.3216);stroke-opacity:1;" stroke-width="1.66667" stroke-linecap="round" stroke-linejoin="round"/>
</svg>
