<svg width="20" height="20" viewBox="0 0 20 20" fill="none" xmlns="http://www.w3.org/2000/svg">
<path d="M16.4883 11.0801H11.0796V16.4887C11.0796 16.7756 10.9656 17.0508 10.7628 17.2536C10.5599 17.4565 10.2848 17.5705 9.99788 17.5705C9.71099 17.5705 9.43585 17.4565 9.23299 17.2536C9.03012 17.0508 8.91615 16.7756 8.91615 16.4887V11.0801H3.50751C3.22062 11.0801 2.94548 10.9661 2.74261 10.7633C2.53975 10.5604 2.42578 10.2853 2.42578 9.99837C2.42578 9.71148 2.53975 9.43634 2.74261 9.23348C2.94548 9.03061 3.22062 8.91664 3.50751 8.91664H8.91615V3.508C8.91615 3.22111 9.03012 2.94596 9.23299 2.7431C9.43585 2.54024 9.71099 2.42627 9.99788 2.42627C10.2848 2.42627 10.5599 2.54024 10.7628 2.7431C10.9656 2.94596 11.0796 3.22111 11.0796 3.508V8.91664H16.4883C16.7751 8.91664 17.0503 9.03061 17.2532 9.23348C17.456 9.43634 17.57 9.71148 17.57 9.99837C17.57 10.2853 17.456 10.5604 17.2532 10.7633C17.0503 10.9661 16.7751 11.0801 16.4883 11.0801Z" fill="#543C52" style="fill:#543C52;fill:color(display-p3 0.3294 0.2353 0.3216);fill-opacity:1;"/>
</svg>
