<svg width="20" height="20" viewBox="0 0 20 20" fill="none" xmlns="http://www.w3.org/2000/svg">
<path fill-rule="evenodd" clip-rule="evenodd" d="M13.3327 16.004C13.1468 16.1898 12.8947 16.2941 12.6318 16.2941C12.369 16.2941 12.1169 16.1898 11.9309 16.004L6.64092 10.7141C6.45518 10.5281 6.35085 10.276 6.35085 10.0131C6.35085 9.75029 6.45518 9.49819 6.64092 9.31222L11.9309 4.02223C12.0217 3.92478 12.1312 3.84662 12.2529 3.79241C12.3745 3.7382 12.5059 3.70905 12.6391 3.7067C12.7722 3.70435 12.9045 3.72885 13.028 3.77873C13.1515 3.82862 13.2637 3.90287 13.3579 3.99706C13.4521 4.09124 13.5264 4.20343 13.5762 4.32694C13.6261 4.45045 13.6506 4.58273 13.6483 4.71591C13.6459 4.84909 13.6168 4.98043 13.5626 5.1021C13.5084 5.22377 13.4302 5.33327 13.3327 5.42408L8.74369 10.0131L13.3327 14.6022C13.5185 14.7882 13.6228 15.0403 13.6228 15.3031C13.6228 15.566 13.5185 15.8181 13.3327 16.004Z" fill="#81818D" style="fill:#81818D;fill:color(display-p3 0.5059 0.5059 0.5529);fill-opacity:1;"/>
</svg>
