<svg width="20" height="20" viewBox="0 0 20 20" fill="none" xmlns="http://www.w3.org/2000/svg">
<path d="M17.3296 8.62997L4.19995 1.13778C3.92313 0.982713 3.60564 0.9156 3.28974 0.94537C2.97384 0.97514 2.67448 1.10038 2.4315 1.30444C2.18851 1.5085 2.01341 1.7817 1.92949 2.0877C1.84556 2.3937 1.85679 2.718 1.96167 3.01747L4.31949 9.99872L1.96167 16.98C1.87878 17.2155 1.85353 17.4674 1.88805 17.7147C1.92257 17.962 2.01584 18.1974 2.16006 18.4012C2.30427 18.6051 2.49524 18.7713 2.71694 18.8862C2.93865 19.001 3.18465 19.061 3.43433 19.0612C3.70283 19.0607 3.9667 18.9913 4.20074 18.8597L4.20777 18.855L17.3328 11.3495C17.5734 11.2133 17.7736 11.0156 17.9129 10.7767C18.0522 10.5378 18.1256 10.2663 18.1256 9.98974C18.1256 9.7132 18.0522 9.44163 17.9129 9.20273C17.7736 8.96384 17.5734 8.76619 17.3328 8.62997H17.3296ZM3.99605 16.8159L5.98199 10.9362H10.3093C10.558 10.9362 10.7964 10.8374 10.9722 10.6616C11.1481 10.4858 11.2468 10.2474 11.2468 9.99872C11.2468 9.75008 11.1481 9.51162 10.9722 9.33581C10.7964 9.15999 10.558 9.06122 10.3093 9.06122H5.98199L3.99527 3.17997L15.9296 9.99013L3.99605 16.8159Z" fill="white" style="fill:white;fill-opacity:1;"/>
</svg>
